<?xml version="1.0" encoding="utf-8"?><!-- Generator: Adobe Illustrator 19.1.0, SVG Export Plug-In . SVG Version: 6.00 Build 0) --><svg version="1.1" id="Layer_1" xmlns="http://www.w3.org/2000/svg" xmlns:xlink="http://www.w3.org/1999/xlink" x="0px" y="0px" viewBox="0 0 500 500" style="enable-background:new 0 0 500 500;" xml:space="preserve"><style type="text/css">.st0{fill:#EE5032;}.st1{fill:#FFFFFF;}</style><g id="codeigniter"><polygon class="st0" points="359.6,9 496.5,180.7 447.7,394.7 249.8,490 52,394.7 3.1,180.7 140,9 "/><path class="st1" d="M317.4,197.7c9.3,24.5-36.2,38.5-45.5,9.3c-7.6-24.5,5.6-37.2,7.5-74c1.8-40.5-35.8-72-35.8-72s19.5,35.6-38.3,87.6C165,186,105.1,250.2,110.4,319.7c5.4,63.4,47,106.9,120.4,110.1c-35.7-4.9-49.2-22.9-56.9-50c-10.3-45.6,36.1-68.9,36.1-68.9c-13.6,31.5,29.1,48.4,34.6,10.7c1.9-17.9-11.3-25.1-12.3-44.1c-1-20.9,18.7-37.2,18.7-37.2s-10.8,18.4,21.2,45.3c22.3,19.3,53.1,52.6,50.2,88.5c-2.4,26-15.9,45.5-41.6,53.3c58.5-8.6,94.7-38.8,106.2-96.6C405.6,242.6,317.4,197.7,317.4,197.7z"/></g></svg>
