<?xml version="1.0" encoding="utf-8"?> <svg version="1.1" id="Layer_1" xmlns="http://www.w3.org/2000/svg" xmlns:xlink="http://www.w3.org/1999/xlink" x="0px" y="0px" viewBox="0 0 500 500" style="enable-background:new 0 0 500 500;" xml:space="preserve"><style type="text/css">.st0{fill:#E24E30;} .st1{fill:#EF6534;} .st2{fill:#FFFFFF;} .st3{fill:#D6D6D6;}</style><g id="html_5"><polygon id="container_1_" class="st0" points="25.5,2 475,2 436,446.7 250.2,497 64.3,445.5 "/><polygon id="shadow_1_" class="st1" points="449.4,27.3 414.4,429.7 249,470.6 249,27.5 "/><g id="_x35_"><polygon class="st2" points="249,124 406.4,124 411.5,68 249,68 "/><polygon class="st3" points="160.5,199.7 155.4,124 249,124 249,68 90.2,68 103.7,257 249,256.4 249,200.3 "/><polygon class="st2" points="249,200.3 249,256.4 333.5,256.4 325.6,346 249,364.3 249,430.4 382.4,393.6 398.9,200.4 "/><polygon class="st3" points="249,364.3 171.2,345.7 167.5,292.1 106.6,292.2 113.7,392.4 249,430.4 "/></g></g></svg>
