<?xml version="1.0" encoding="utf-8"?><svg version="1.1" id="Layer_1" xmlns="http://www.w3.org/2000/svg" xmlns:xlink="http://www.w3.org/1999/xlink" x="0px" y="0px" viewBox="0 0 500 500" style="enable-background:new 0 0 500 500;" xml:space="preserve"><style type="text/css">.st0{fill:#FFFFFF;}.st1{fill:none;}.st2{fill:#3C3C48;}</style><g id="php"><rect x="11" y="121" class="st0" width="478" height="342.4"/><g><g><circle class="st1" cx="98.2" cy="173.2" r="31.9"/><path class="st1" d="M413.8,165H311.2c-5.1,0-9.2,4.1-9.2,9.2v0.6c0,5.1,4.1,9.2,9.2,9.2h102.6c5.1,0,9.2-4.1,9.2-9.2v-0.6C423,169.1,418.9,165,413.8,165z"/><path class="st2" d="M410.2,17H88.8L6,121v103h488V121L410.2,17z M98.2,205.1c-17.6,0-31.9-14.3-31.9-31.9s14.3-31.9,31.9-31.9s31.9,14.3,31.9,31.9S115.8,205.1,98.2,205.1z M423,174.8c0,5.1-4.1,9.2-9.2,9.2H311.2c-5.1,0-9.2-4.1-9.2-9.2v-0.6c0-5.1,4.1-9.2,9.2-9.2h102.6c5.1,0,9.2,4.1,9.2,9.2L423,174.8L423,174.8z"/></g><circle class="st2" cx="98.1" cy="172.6" r="10"/></g><g><path class="st2" d="M6,240v105h488V240H6z M98.2,324.8c-17.6,0-31.9-14.3-31.9-31.9S80.6,261,98.2,261s31.9,14.3,31.9,31.9S115.8,324.8,98.2,324.8z M423,293.8c0,5.1-4.1,9.2-9.2,9.2H311.2c-5.1,0-9.2-4.1-9.2-9.2v-0.6c0-5.1,4.1-9.2,9.2-9.2h102.6c5.1,0,9.2,4.1,9.2,9.2L423,293.8L423,293.8z"/><circle class="st2" cx="98.1" cy="292.3" r="10"/></g><g><circle class="st2" cx="98.1" cy="412" r="10"/><g><circle class="st1" cx="98.2" cy="412.6" r="31.9"/><path class="st1" d="M423,413.2c0-5.1-4.1-9.2-9.2-9.2H311.2c-5.1,0-9.2,4.1-9.2,9.2v0.6c0,5.1,4.1,9.2,9.2,9.2h102.6c5.1,0,9.2-4.1,9.2-9.2L423,413.2L423,413.2z"/><g><circle class="st1" cx="98.2" cy="412.6" r="31.9"/><path class="st1" d="M423,413.2c0-5.1-4.1-9.2-9.2-9.2H311.2c-5.1,0-9.2,4.1-9.2,9.2v0.6c0,5.1,4.1,9.2,9.2,9.2h102.6c5.1,0,9.2-4.1,9.2-9.2L423,413.2L423,413.2z"/><path class="st2" d="M6,360v103.4c0,10.1,8.3,18.6,18.4,18.6h451.2c10.1,0,18.4-8.5,18.4-18.6V360H6z M423,413.8c0,5.1-4.1,9.2-9.2,9.2H311.2c-5.1,0-9.2-4.1-9.2-9.2v-0.6c0-5.1,4.1-9.2,9.2-9.2h102.6c5.1,0,9.2,4.1,9.2,9.2L423,413.8L423,413.8z M98.2,380.7c17.6,0,31.9,14.3,31.9,31.9s-14.3,31.9-31.9,31.9s-31.9-14.3-31.9-31.9S80.6,380.7,98.2,380.7z"/></g></g></g></g></svg>
